<?xml version="1.0" encoding="utf-8"?>
<!-- Generator: Adobe Illustrator 25.4.1, SVG Export Plug-In . SVG Version: 6.00 Build 0)  -->
<svg version="1.1" xmlns="http://www.w3.org/2000/svg" xmlns:xlink="http://www.w3.org/1999/xlink" x="0px" y="0px"
	 viewBox="0 0 867.9 955.5" style="enable-background:new 0 0 867.9 955.5;" xml:space="preserve">
<style type="text/css">
	.st0{fill:#FFFFFF;stroke:#000000;stroke-miterlimit:10;}
	.st1{clip-path:url(#SVGID_00000171693864040506318320000004213577710431079561_);}
	.st2{fill:#8E1073;}
	.st3{clip-path:url(#SVGID_00000004539325571198321020000001741326870419039619_);}
	.st4{fill:#015B54;}
	.st5{fill:#FFFFFF;}
</style>
<g id="Capa_2">
	<path class="st0" d="M3.5,140.1L427.3,0l440.6,139.1v555.1c0,0-44,156.7-419.7,257.2l-24.2-0.9c0,0-402.9-103.2-420.6-274.4
		L3.5,140.1z"/>
	<path class="st0" d="M861,137"/>
</g>
<g id="Capa_1">
	<g id="Columnas_2_">
		<g>
			<g>
				<defs>
					<path id="SVGID_1_" d="M3.4,652.7v23.5c0,0-20.2,148,437.4,279.2c410.5-114.4,434-279.2,434-279.2v-23.5H770.5
						c0,0-104.3,107.7-333.1,97.6c-212-6.7-319.6-97.6-319.6-97.6H3.4L3.4,652.7z"/>
				</defs>
				<clipPath id="SVGID_00000049216429934005298310000012622924206325465253_">
					<use xlink:href="#SVGID_1_"  style="overflow:visible;"/>
				</clipPath>
				<g id="inferiores" style="clip-path:url(#SVGID_00000049216429934005298310000012622924206325465253_);">
					<polygon id="Columna_8" class="st2" points="328.5,564.9 328.5,950.5 429.5,950.5 429.5,480.5 328.5,480.5 					"/>
					<polygon id="Columna_1_1_" class="st2" points="442,565.9 442,951.5 542.9,951.5 542.9,481.5 442,481.5 					"/>
					<polygon id="Columna_2_1_" class="st2" points="550.6,565.5 550.6,951 651.6,951 651.6,481 550.6,481 					"/>
					<polygon id="Columna_3_3_" class="st2" points="658.3,565.5 658.3,951.1 759.2,951.1 759.2,481.1 658.3,481.1 					"/>
					<polygon id="Columna_4_1_" class="st2" points="766.9,565.1 766.9,950.7 867.9,950.7 867.9,480.7 766.9,480.7 					"/>
					<polygon id="Columna_5" class="st2" points="3.5,565.7 3.5,951.3 104.5,951.3 104.5,481.3 3.5,481.3 					"/>
					<polygon id="Columna_6" class="st2" points="112.2,565.3 112.2,950.8 213.1,950.8 213.1,480.8 112.2,480.8 					"/>
					<polygon id="Columna_7" class="st2" points="219.9,565.3 219.9,950.9 320.8,950.9 320.8,480.9 219.9,480.9 					"/>
				</g>
			</g>
		</g>
		<g>
			<g>
				<defs>
					<path id="SVGID_00000149365372590539330910000013255836479854088843_" d="M0,141.3L427.3,0l447.5,141.3v158.1
						c0,0-242.2-90.8-444.1-94.2C100.9,199.7,0,269.2,0,269.2L0,141.3L0,141.3z"/>
				</defs>
				<clipPath id="SVGID_00000091012302382094256990000016500502742076565664_">
					<use xlink:href="#SVGID_00000149365372590539330910000013255836479854088843_"  style="overflow:visible;"/>
				</clipPath>
				<g id="superiores_1_" style="clip-path:url(#SVGID_00000091012302382094256990000016500502742076565664_);">
					<polygon id="Columna_8_1_" class="st4" points="328.5,82.8 328.5,468.3 429.5,468.3 429.5,5.1 328.5,8.4 					"/>
					<polygon id="Columna_1_3_" class="st4" points="442,83.8 442,469.3 542.9,469.3 542.9,-0.7 442,-0.7 					"/>
					<polygon id="Columna_2_3_" class="st4" points="550.6,83.3 550.6,468.9 651.6,468.9 651.6,-1.1 550.6,-1.1 					"/>
					<polygon id="Columna_3_1_" class="st4" points="658.3,83.4 658.3,469 759.2,469 759.2,-1.1 658.3,-1.1 					"/>
					<polygon id="Columna_4_3_" class="st4" points="766.9,82.9 766.9,468.5 867.9,468.5 867.9,-1.5 766.9,-1.5 					"/>
					<polygon id="Columna_5_1_" class="st4" points="3.5,83.6 3.5,469.2 104.5,469.2 104.5,-0.9 3.5,-0.9 					"/>
					<polygon id="Columna_6_1_" class="st4" points="112.2,83.1 112.2,468.7 213.1,468.7 213.1,-1.3 112.2,-1.3 					"/>
					<polygon id="Columna_7_1_" class="st4" points="219.9,83.2 219.9,468.8 320.8,468.8 320.8,-1.2 219.9,-1.2 					"/>
				</g>
			</g>
		</g>
	</g>
	<g id="iris">
		<circle id="Iris" class="st4" cx="435.7" cy="459.2" r="146.4"/>
		<circle id="Iris_1_" class="st5" cx="499.6" cy="419.9" r="46.8"/>
	</g>
	<g id="cejas">
		<path class="st2" d="M55.5,462.6c0,0,53.8-107.7,182.6-161.2c117.6-48.9,365.8-82.8,604.7,97.3l6.7-3.4c0,0-294.2-270-652.7-137.9
			c-63.9,23.5-144.7,63.9-181.7,151.4L55.5,462.6z"/>
		<path class="st2" d="M815.1,474c0,0-53.8,107.7-182.6,161.2C514.9,684.1,266.7,718,27.8,538l-6.7,3.4c0,0,294.2,270,652.7,137.9
			c63.9-23.5,144.7-63.9,181.7-151.4L815.1,474z"/>
	</g>
</g>
</svg>
