<?xml version="1.0" encoding="UTF-8" standalone="no"?>
<!-- Created with Inkscape (http://www.inkscape.org/) -->

<svg
   version="1.1"
   id="svg2"
   width="344"
   height="344"
   viewBox="0 0 344 344"
   xml:space="preserve"
   xmlns="http://www.w3.org/2000/svg"
   xmlns:svg="http://www.w3.org/2000/svg"><defs
     id="defs6" /><g
     id="g8"><path
       style="fill:#000000"
       d="m 215.24082,325.93024 c -22.02649,-4.17765 -43.51227,-18.08534 -55.20708,-35.73538 l -3.80991,-5.75 h -6.22511 c -4.91848,0 -62.103342,-10.05008 -97.241722,-17.08997 l -5.25,-1.05183 V 157.93298 c 0,-59.603554 0.343932,-108.582653 0.764293,-108.84245 C 48.691652,48.830732 70.312408,43.629175 96.317414,37.531513 141.36667,26.968349 144.11646,26.444855 154.55311,26.444855 h 10.95388 v 79.100345 79.10035 l 5.75,-5.27759 c 11.79262,-10.82375 27.77076,-19.17844 42,-21.96108 l 6.25,-1.22223 v -43.3699 -43.369895 h -16 -16 v -10.5 -10.5 h 27 27 v 53.763435 53.76342 l 8.9961,2.14903 c 29.72879,7.10175 53.48397,29.80102 62.60699,59.82412 2.44021,8.0305 2.73481,10.56196 2.73481,23.5 0,12.93804 -0.2946,15.4695 -2.73481,23.5 -8.80574,28.97896 -30.49204,50.62835 -59.10309,59.0025 -11.38342,3.33181 -27.34848,4.14841 -38.76617,1.98288 z m 30.76617,-22.08423 c 17.68839,-4.19081 33.81035,-17.19563 42.02698,-33.90115 4.84346,-9.84741 6.59533,-17.41768 6.59533,-28.5 0,-25.26062 -13.66425,-46.89106 -36.62231,-57.97291 -9.3513,-4.51387 -17.09034,-6.28165 -27.5,-6.28165 -10.40966,0 -18.1487,1.76778 -27.5,6.28165 -13.96685,6.74179 -23.7853,16.56525 -30.4574,30.47291 -4.76799,9.93864 -6.24569,16.23724 -6.2813,26.77379 -0.0374,11.06709 1.64802,18.65968 6.26579,28.22621 13.56239,28.09695 43.05691,42.10745 73.47291,34.90115 z m -38.76734,-46.16827 -19.74858,-19.76712 7.51299,-7.46285 7.513,-7.46285 12.49726,12.46725 12.49727,12.46726 17.76531,-17.74475 17.76532,-17.74475 7.46609,7.51626 7.4661,7.51626 -24.97621,24.99121 c -13.73691,13.74516 -25.2088,24.9912 -25.49309,24.9912 -0.28428,0 -9.40374,-8.8952 -20.26546,-19.76712 z M 144.50699,155.32823 c 0,-101.517512 -0.0915,-107.09354 -1.75,-106.674764 -0.9625,0.24303 -17.83984,4.199315 -37.5052,8.791743 l -35.755199,8.34987 0.255203,91.525101 0.255204,91.5251 35.499992,6.71514 c 19.525,3.69333 36.2875,6.75324 37.25,6.79979 1.6563,0.0801 1.75,-5.65056 1.75,-107.03198 z m -21.69424,8.70321 c -2.51071,-2.15962 -2.80576,-3.06258 -2.80576,-8.58658 0,-5.524 0.29505,-6.42696 2.80576,-8.58658 3.57731,-3.07707 4.22705,-3.03446 7.77116,0.50966 2.47455,2.47455 2.92308,3.7139 2.92308,8.07692 0,4.36302 -0.44853,5.60237 -2.92308,8.07692 -3.54411,3.54412 -4.19385,3.58673 -7.77116,0.50966 z"
       id="path344" /></g></svg>
