<?xml version="1.0" encoding="UTF-8" standalone="no"?>
<!-- Created with Inkscape (http://www.inkscape.org/) -->

<svg
   version="1.1"
   id="svg2"
   width="344"
   height="344"
   viewBox="0 0 344 344"
   sodipodi:docname="doorbell.png"
   xmlns:inkscape="http://www.inkscape.org/namespaces/inkscape"
   xmlns:sodipodi="http://sodipodi.sourceforge.net/DTD/sodipodi-0.dtd"
   xmlns="http://www.w3.org/2000/svg"
   xmlns:svg="http://www.w3.org/2000/svg">
  <defs
     id="defs6" />
  <sodipodi:namedview
     id="namedview4"
     pagecolor="#ffffff"
     bordercolor="#000000"
     borderopacity="0.25"
     inkscape:showpageshadow="2"
     inkscape:pageopacity="0.0"
     inkscape:pagecheckerboard="0"
     inkscape:deskcolor="#d1d1d1"
     showgrid="false" />
  <g
     inkscape:groupmode="layer"
     inkscape:label="Image"
     id="g8">
    <path
       style="fill:#000000"
       d="m 136.85611,304.83479 c -6.68366,-1.64908 -12.47558,-4.1681 -18.21154,-7.92056 -2.475,-1.61914 -20.1522,-18.74102 -39.282661,-38.04862 l -34.782654,-35.10472 0.471809,-6.71824 c 0.794011,-11.30615 6.085969,-20.04708 15.480652,-25.56998 4.26187,-2.50545 5.411762,-2.70507 15.112848,-2.62358 8.459117,0.0711 11.666219,0.54034 16.5,2.41434 7.790856,3.02043 14.903546,7.43147 17.739686,11.00155 1.43671,1.8085 3.62673,3.09542 6.01032,3.53186 l 3.75,0.68663 v -36.4926 -36.4926 l -3.35047,-2.55553 c -4.59371,-3.50379 -12.19572,-14.92485 -14.76455,-22.18185 -2.64222,-7.46435 -3.55163,-20.981353 -1.93512,-28.762593 3.76607,-18.128225 18.68162,-34.485567 36.4301,-39.951552 8.15559,-2.511668 22.12467,-2.903558 29.59359,-0.830222 14.80766,4.110537 28.0785,14.996074 34.32511,28.155513 9.37516,19.750201 7.4319,38.994354 -5.72917,56.736044 -2.58965,3.49095 -4.56468,6.47716 -4.38897,6.63602 0.17571,0.15886 11.34448,2.62059 24.81948,5.4705 42.97637,9.08934 56.36997,12.18625 59.33532,13.71969 4.87684,2.52192 11.70426,9.4822 14.50418,14.78645 l 2.6605,5.04015 0.28908,44.17567 c 0.32128,49.09594 0.0196,52.27476 -6.03998,63.6437 -6.29689,11.81417 -16.19767,20.37798 -29.57039,25.5773 l -6.67871,2.59668 -53.5,0.19269 c -41.16923,0.14828 -54.71889,-0.10805 -58.78846,-1.11214 z m 114.97635,-23.34444 c 7.60798,-3.74676 11.99915,-8.27009 15.711,-16.18383 l 2.60111,-5.54563 v -42.83145 -42.83146 l -3.01607,-2.69543 c -2.71407,-2.42554 -7.87069,-3.7361 -51.5,-13.08881 -26.66616,-5.71636 -49.49643,-10.59422 -50.73393,-10.83969 l -2.25,-0.44631 v -29.8067 -29.806713 l -2.56028,-3.04272 c -3.22552,-3.83331 -8.04381,-4.88394 -12.30131,-2.6823 -6.37908,3.29875 -6.13841,0.16134 -6.13841,80.021923 0,57.39107 -0.26118,72.54261 -1.25,72.5159 -0.6875,-0.0186 -10.11895,-2.3995 -20.95878,-5.29095 -18.99841,-5.0677 -19.79205,-5.38074 -22.01887,-8.68512 -3.345636,-4.96459 -10.318095,-8.89068 -18.070678,-10.17532 -5.620522,-0.93135 -6.985589,-0.85884 -9.028229,0.47955 -5.404164,3.54094 -5.366782,3.58957 29.195567,37.98073 29.4374,29.29159 33.12034,32.6239 37.63099,34.04841 7.71008,2.43493 7.95991,2.44461 59.52344,2.30646 l 48.52345,-0.13 z"
       id="path293" />
  </g>
</svg>
