<?xml version="1.0" encoding="UTF-8" standalone="no"?>
<!-- Created with Inkscape (http://www.inkscape.org/) -->

<svg
   version="1.1"
   id="svg48"
   width="344"
   height="344"
   viewBox="0 0 344 344"
   sodipodi:docname="wallmount-camera.png"
   xmlns:inkscape="http://www.inkscape.org/namespaces/inkscape"
   xmlns:sodipodi="http://sodipodi.sourceforge.net/DTD/sodipodi-0.dtd"
   xmlns="http://www.w3.org/2000/svg"
   xmlns:svg="http://www.w3.org/2000/svg">
  <defs
     id="defs52" />
  <sodipodi:namedview
     id="namedview50"
     pagecolor="#ffffff"
     bordercolor="#000000"
     borderopacity="0.25"
     inkscape:showpageshadow="2"
     inkscape:pageopacity="0.0"
     inkscape:pagecheckerboard="0"
     inkscape:deskcolor="#d1d1d1"
     showgrid="false" />
  <g
     inkscape:groupmode="layer"
     inkscape:label="Image"
     id="g54">
    <path
       style="fill:#000000;stroke-width:1.17416"
       d="m 116.17278,250.92529 0.30766,-43.81928 54.00678,26.7834 54.00679,26.78341 6.46236,-12.87799 6.46238,-12.87798 14.23108,19.63995 14.23107,19.63998 12.44906,6.392 c 6.84699,3.51559 12.6789,6.15745 12.95983,5.87079 1.85712,-1.89508 51.10578,-103.88392 50.29436,-104.15438 -0.55856,-0.18621 -6.07908,-3.23137 -12.26782,-6.76706 l -11.25224,-6.42851 h -24.18977 -24.18978 l 5.36877,-10.68985 c 2.95282,-5.8794 5.20369,-10.84976 5.00195,-11.04519 C 278.84563,146.20276 59.17137,38.749041 58.78182,39.138615 58.10433,39.816093 3.17417,150.40131 3.17417,151.08772 c 0,0.31157 19.81391,10.28118 44.03093,22.15467 l 44.03093,21.5882 v 37.62832 37.62833 H 46.61803 2 v 12.32865 12.32867 h 56.93256 56.93257 z m 149.395,-20.28348 -14.98025,-20.6589 3.44198,-7.81444 3.44198,-7.81444 25.49192,-0.31644 c 14.02056,-0.17405 25.49192,-0.0501 25.49192,0.2752 0,0.74509 -27.27997,56.98792 -27.64135,56.98792 -0.14627,0 -7.00705,-9.29651 -15.2462,-20.6589 z M 110.02257,176.16228 c -39.71591,-19.51552 -72.4285,-35.68825 -72.69466,-35.9394 -0.79316,-0.74841 32.09194,-67.360676 33.26321,-67.378171 1.31783,-0.01972 173.47144,84.320191 174.86796,85.669671 0.54746,0.52901 -6.41318,16.07172 -15.46809,34.53936 l -16.46348,33.57753 -15.6471,-7.4931 c -8.6059,-4.12122 -48.14193,-23.46037 -87.85784,-42.97589 z"
       id="path502" />
  </g>
</svg>
