<svg width="28" height="19" viewBox="0 0 28 19" fill="none" xmlns="http://www.w3.org/2000/svg">
<path d="M13.145 16.4622C20.4048 17.3115 26.6728 14.6591 27.145 10.5378C27.6172 6.41656 22.1148 2.38713 14.855 1.53781C7.59518 0.688503 1.32717 3.34093 0.854978 7.46218C0.382786 11.5834 5.88522 15.6129 13.145 16.4622Z" fill="#E2E2E2"/>
<g filter="url(#filter0_f_24_345)">
<path d="M3.50375 9.16104C3.50375 9.16104 5.00125 6.13465 8.58418 4.62994C11.8559 3.25589 18.7612 2.30264 25.4048 7.36413L25.592 7.26954C25.592 7.26954 17.4068 -0.320454 7.43469 3.392C5.65641 4.05402 3.41016 5.18891 2.38062 7.64784L3.50375 9.16104Z" fill="#7E7E7E"/>
</g>
<g filter="url(#filter1_f_24_345)">
<path d="M17.9459 8.51629C17.9459 10.7884 16.1231 12.6303 13.8745 12.6303C11.626 12.6303 9.80313 10.7884 9.80313 8.51629C9.80313 6.24418 11.626 4.40229 13.8745 4.40229C16.1231 4.40229 17.9459 6.24418 17.9459 8.51629Z" fill="#7E7E7E"/>
</g>
<g filter="url(#filter2_f_24_345)">
<path d="M24.357 9.2707C24.357 9.2707 22.8595 12.2971 19.2766 13.8018C16.0048 15.1758 9.09954 16.1291 2.45599 11.0676L2.26883 11.1622C2.26883 11.1622 10.454 18.7522 20.4261 15.0397C22.2044 14.3777 24.4506 13.2428 25.4802 10.7839L24.357 9.2707Z" fill="#7E7E7E"/>
</g>
<g filter="url(#filter3_f_24_345)">
<path d="M3.39195 8.82214C3.39195 8.82214 4.88946 5.79575 8.47239 4.29104C11.7441 2.91699 18.6494 1.96375 25.293 7.02523L25.4802 6.93064C25.4802 6.93064 17.295 -0.65935 7.32289 3.0531C5.54461 3.71512 3.29837 4.85001 2.26883 7.30895L3.39195 8.82214Z" fill="#7E7E7E"/>
</g>
<g filter="url(#filter4_f_24_345)">
<path d="M17.9459 8.74223C17.9459 11.0143 16.1231 12.8562 13.8745 12.8562C11.626 12.8562 9.80313 11.0143 9.80313 8.74223C9.80313 6.47011 11.626 4.62823 13.8745 4.62823C16.1231 4.62823 17.9459 6.47011 17.9459 8.74223Z" fill="#7E7E7E"/>
</g>
<g filter="url(#filter5_f_24_345)">
<path d="M24.5806 9.38367C24.5806 9.38367 23.0831 12.41 19.5002 13.9148C16.2284 15.2888 9.32313 16.2421 2.67958 11.1806L2.49242 11.2751C2.49242 11.2751 10.6776 18.8652 20.6497 15.1527C22.4279 14.4907 24.6742 13.3558 25.7038 10.8969L24.5806 9.38367Z" fill="#7E7E7E"/>
</g>
<path d="M17.9458 8.51629C17.9458 10.7884 16.1231 12.6303 13.8745 12.6303C11.6259 12.6303 9.80313 10.7884 9.80313 8.51629C9.80313 6.24418 11.6259 4.40229 13.8745 4.40229C16.1231 4.40229 17.9458 6.24418 17.9458 8.51629Z" fill="#015B54"/>
<path d="M16.9537 7.40907C16.9537 8.13509 16.3713 8.72366 15.6528 8.72366C14.9343 8.72366 14.3518 8.13509 14.3518 7.40907C14.3518 6.68304 14.9343 6.09447 15.6528 6.09447C16.3713 6.09447 16.9537 6.68304 16.9537 7.40907Z" fill="white"/>
<path d="M3.29836 8.61086C3.29836 8.61086 4.79587 5.58446 8.3788 4.07975C11.6506 2.7057 18.5558 1.75246 25.1994 6.81394L25.3866 6.71935C25.3866 6.71935 17.2014 -0.87064 7.2293 2.84181C5.45102 3.50383 3.20478 4.63872 2.17524 7.09766L3.29836 8.61086Z" fill="#8E1073"/>
<path d="M24.4296 8.9318C24.4296 8.9318 22.9321 11.9582 19.3491 13.4629C16.0774 14.8369 9.17208 15.7902 2.52853 10.7287L2.34137 10.8233C2.34137 10.8233 10.5265 18.4133 20.4986 14.7008C22.2769 14.0389 24.5232 12.9039 25.5527 10.445L24.4296 8.9318Z" fill="#8E1073"/>
<defs>
<filter id="filter0_f_24_345" x="0.537183" y="0.52596" width="26.8982" height="10.4785" filterUnits="userSpaceOnUse" color-interpolation-filters="sRGB">
<feFlood flood-opacity="0" result="BackgroundImageFix"/>
<feBlend mode="normal" in="SourceGraphic" in2="BackgroundImageFix" result="shape"/>
<feGaussianBlur stdDeviation="0.92172" result="effect1_foregroundBlur_24_345"/>
</filter>
<filter id="filter1_f_24_345" x="7.9597" y="2.55884" width="11.8296" height="11.9149" filterUnits="userSpaceOnUse" color-interpolation-filters="sRGB">
<feFlood flood-opacity="0" result="BackgroundImageFix"/>
<feBlend mode="normal" in="SourceGraphic" in2="BackgroundImageFix" result="shape"/>
<feGaussianBlur stdDeviation="0.92172" result="effect1_foregroundBlur_24_345"/>
</filter>
<filter id="filter2_f_24_345" x="0.42539" y="7.42727" width="26.8982" height="10.4785" filterUnits="userSpaceOnUse" color-interpolation-filters="sRGB">
<feFlood flood-opacity="0" result="BackgroundImageFix"/>
<feBlend mode="normal" in="SourceGraphic" in2="BackgroundImageFix" result="shape"/>
<feGaussianBlur stdDeviation="0.92172" result="effect1_foregroundBlur_24_345"/>
</filter>
<filter id="filter3_f_24_345" x="0.425386" y="0.187063" width="26.8982" height="10.4785" filterUnits="userSpaceOnUse" color-interpolation-filters="sRGB">
<feFlood flood-opacity="0" result="BackgroundImageFix"/>
<feBlend mode="normal" in="SourceGraphic" in2="BackgroundImageFix" result="shape"/>
<feGaussianBlur stdDeviation="0.92172" result="effect1_foregroundBlur_24_345"/>
</filter>
<filter id="filter4_f_24_345" x="7.9597" y="2.78478" width="11.8296" height="11.9149" filterUnits="userSpaceOnUse" color-interpolation-filters="sRGB">
<feFlood flood-opacity="0" result="BackgroundImageFix"/>
<feBlend mode="normal" in="SourceGraphic" in2="BackgroundImageFix" result="shape"/>
<feGaussianBlur stdDeviation="0.92172" result="effect1_foregroundBlur_24_345"/>
</filter>
<filter id="filter5_f_24_345" x="0.64898" y="7.54023" width="26.8982" height="10.4785" filterUnits="userSpaceOnUse" color-interpolation-filters="sRGB">
<feFlood flood-opacity="0" result="BackgroundImageFix"/>
<feBlend mode="normal" in="SourceGraphic" in2="BackgroundImageFix" result="shape"/>
<feGaussianBlur stdDeviation="0.92172" result="effect1_foregroundBlur_24_345"/>
</filter>
</defs>
</svg>
