<?xml version="1.0" encoding="UTF-8" standalone="no"?>
<!-- Created with Inkscape (http://www.inkscape.org/) -->

<svg
   version="1.1"
   id="svg48"
   width="344"
   height="344"
   viewBox="0 0 344 344"
   xml:space="preserve"
   xmlns="http://www.w3.org/2000/svg"
   xmlns:svg="http://www.w3.org/2000/svg"><defs
     id="defs52" /><g
     id="g54"><path
       style="fill:#000000"
       d="m 70.892351,309.97062 c -17.904409,-2.29237 -34.02649,-18.03188 -36.401207,-35.53742 -2.027585,-14.94662 2.356854,-26.64681 14.869454,-39.68023 8.210485,-8.55223 8.210485,-8.55223 1.811838,-15.33514 C 39.307095,206.83995 33.756718,191.5577 34.562019,173.6832 c 0.526563,-11.68765 3.546922,-21.5499 9.304273,-30.38084 2.014882,-3.09054 13.177,-15.11562 24.804706,-26.72242 19.221412,-19.186835 21.839211,-21.437937 28.826718,-24.788718 13.248474,-6.353161 26.443424,-8.028944 40.227004,-5.108903 7.04769,1.493047 17.49397,5.873919 22.49089,9.432043 2.77589,1.976608 2.77589,1.976608 4.43717,-5.72728 2.01757,-9.356141 8.98583,-23.821108 14.92143,-30.974477 6.80038,-8.195574 15.4121,-14.946797 25.23807,-19.785592 21.60119,-10.637493 39.47978,-10.840886 65.23984,-0.74219 12.23983,4.798374 12.23983,4.798374 -13.39911,30.454644 -25.63895,25.656271 -25.63895,25.656271 -18.76134,33.250003 3.78269,4.17655 7.11573,7.59373 7.40677,7.59373 0.29103,0 11.54726,-11.025 25.01384,-24.500003 13.46658,-13.475 24.74709,-24.5 25.06781,-24.5 1.27733,0 10.44495,15.728765 12.55361,21.538066 10.16855,28.014047 0.44855,62.016707 -23.36306,81.728957 -14.72023,12.18603 -38.86299,19.762 -53.75757,16.86906 -2.74957,-0.53404 -5.11995,-0.85025 -5.26752,-0.70268 -0.14757,0.14757 0.45114,3.07659 1.33047,6.50893 2.81381,10.98338 -0.35472,23.27216 -8.27059,32.07651 -4.70916,5.23772 -13.36366,10.955 -16.60846,10.97178 -0.99842,0.005 -4.37342,2.53114 -7.5,5.6133 -5.35682,5.28071 -11.50802,9.1791 -17.18469,10.89097 -1.375,0.41465 -4.43984,2.75937 -6.81076,5.21048 -5.34619,5.52703 -15.13621,10.23513 -22.87891,11.00266 -5.81033,0.57597 -5.81033,0.57597 -26.31033,20.7676 -22.567361,22.22791 -26.510499,24.95538 -38.036809,26.3101 -3.554754,0.41781 -9.127158,0.41857 -12.38312,0.002 z m 14.919932,-22.53344 c 2.942692,-1.43248 18.499997,-16.05257 18.499997,-17.3855 0,-0.37314 -1.9125,-1.81498 -4.25,-3.20409 -2.337497,-1.38912 -9.192323,-7.50688 -15.232943,-13.59503 C 78.788717,247.16441 73.46781,242.1832 73.0051,242.1832 c -1.346624,0 -12.56887,11.06338 -14.668809,14.46115 -11.096227,17.95408 8.571105,39.9956 27.475992,30.79283 z M 124.7661,249.20786 c 1.6754,-1.03759 3.83957,-3.2345 4.80926,-4.88203 1.61681,-2.74698 2.0311,-2.91865 4.9934,-2.06907 4.86672,1.39576 7.67928,1.13595 12.39009,-1.14451 4.76257,-2.30552 8.163,-6.98069 9.04916,-12.44149 0.45398,-2.79751 0.94037,-3.44991 2.19379,-2.94248 4.33552,1.75518 8.74908,1.50838 13.10241,-0.73267 5.37112,-2.76501 9.00807,-7.82785 9.00807,-12.53975 0,-3.3716 0.0568,-3.41736 3.25,-2.61866 11.81215,2.95453 21.75,-4.18285 21.75,-15.62087 0,-2.29054 -0.49749,-5.14753 -1.10553,-6.34887 -0.60804,-1.20134 -12.85948,-13.98887 -27.22541,-28.41673 -26.11988,-26.23248 -26.11988,-26.23248 -21.9015,-30.53069 4.21838,-4.29821 4.21838,-4.29821 1.1487,-8.02226 -9.7439,-11.82105 -29.56382,-17.26007 -43.54183,-11.94885 -8.50076,3.23004 -14.126414,7.79334 -33.455908,27.13811 -20.356527,20.37261 -23.109181,24.35813 -25.093355,36.33224 -0.783729,4.72965 -0.774155,8.26669 0.03481,12.85925 2.129134,12.08728 4.567733,15.46744 29.059983,40.28021 14.203287,14.38917 24.06396,23.58025 26.58004,24.7751 4.67428,2.21977 10.22647,1.8017 14.95382,-1.12598 z m 99.63399,-90.44057 c 13.96205,2.66265 25.1407,1.36504 36.91219,-4.28474 7.29563,-3.50157 19.79778,-16.00372 23.29935,-23.29935 5.22669,-10.88997 7.11729,-23.97224 4.38784,-30.36229 -1.22259,-2.862284 -1.22259,-2.862284 -22.61791,18.95604 -21.39531,21.81831 -21.39531,21.81831 -25.48229,17.23301 -2.24785,-2.52191 -11.73699,-12.77044 -21.08699,-22.7745 -9.35,-10.00406 -17.12144,-18.720897 -17.26987,-19.370737 -0.14843,-0.649839 8.51407,-9.952198 19.25,-20.671909 10.73593,-10.719711 19.51987,-19.832211 19.51987,-20.25 0,-1.137702 -9.17164,-0.915071 -15.20078,0.368981 -19.17487,4.083753 -36.72141,21.620153 -40.69414,40.670623 -2.20935,10.594542 -0.8628,25.601042 2.64502,29.477132 1.53096,1.6917 1.40068,2.03954 -2.06017,5.50039 -3.69449,3.69448 -3.69449,3.69448 10.88821,18.30153 14.5827,14.60705 14.5827,14.60705 17.34008,11.84966 2.75739,-2.75739 2.75739,-2.75739 10.16959,-1.34384 z"
       id="path1258" /></g></svg>
